%TF.GenerationSoftware,KiCad,Pcbnew,(5.1.6)-1*%
%TF.CreationDate,2020-11-26T21:26:18-06:00*%
%TF.ProjectId,Protomatrix,50726f74-6f6d-4617-9472-69782e6b6963,rev?*%
%TF.SameCoordinates,Original*%
%TF.FileFunction,Copper,L2,Bot*%
%TF.FilePolarity,Positive*%
%FSLAX46Y46*%
G04 Gerber Fmt 4.6, Leading zero omitted, Abs format (unit mm)*
G04 Created by KiCad (PCBNEW (5.1.6)-1) date 2020-11-26 21:26:18*
%MOMM*%
%LPD*%
G01*
G04 APERTURE LIST*
%TA.AperFunction,ComponentPad*%
%ADD10O,1.700000X1.700000*%
%TD*%
%TA.AperFunction,ComponentPad*%
%ADD11R,1.700000X1.700000*%
%TD*%
%TA.AperFunction,ComponentPad*%
%ADD12C,2.250000*%
%TD*%
%TA.AperFunction,ComponentPad*%
%ADD13O,1.600000X1.600000*%
%TD*%
%TA.AperFunction,ComponentPad*%
%ADD14R,1.600000X1.600000*%
%TD*%
%TA.AperFunction,ViaPad*%
%ADD15C,4.000000*%
%TD*%
%TA.AperFunction,ViaPad*%
%ADD16C,0.800000*%
%TD*%
%TA.AperFunction,Conductor*%
%ADD17C,0.254000*%
%TD*%
G04 APERTURE END LIST*
D10*
%TO.P,J1,20*%
%TO.N,Col13*%
X195691250Y-49435000D03*
%TO.P,J1,19*%
%TO.N,Col12*%
X193151250Y-49435000D03*
%TO.P,J1,18*%
%TO.N,Col11*%
X190611250Y-49435000D03*
%TO.P,J1,17*%
%TO.N,Col10*%
X188071250Y-49435000D03*
%TO.P,J1,16*%
%TO.N,Col9*%
X185531250Y-49435000D03*
%TO.P,J1,15*%
%TO.N,Col8*%
X182991250Y-49435000D03*
%TO.P,J1,14*%
%TO.N,Col7*%
X180451250Y-49435000D03*
%TO.P,J1,13*%
%TO.N,Col6*%
X177911250Y-49435000D03*
%TO.P,J1,12*%
%TO.N,Col5*%
X175371250Y-49435000D03*
%TO.P,J1,11*%
%TO.N,Col4*%
X172831250Y-49435000D03*
%TO.P,J1,10*%
%TO.N,Col3*%
X170291250Y-49435000D03*
%TO.P,J1,9*%
%TO.N,Col2*%
X167751250Y-49435000D03*
%TO.P,J1,8*%
%TO.N,Col1*%
X165211250Y-49435000D03*
%TO.P,J1,7*%
%TO.N,Col0*%
X162671250Y-49435000D03*
%TO.P,J1,6*%
%TO.N,Net-(J1-Pad6)*%
X160131250Y-49435000D03*
%TO.P,J1,5*%
%TO.N,Row4*%
X157591250Y-49435000D03*
%TO.P,J1,4*%
%TO.N,Row3*%
X155051250Y-49435000D03*
%TO.P,J1,3*%
%TO.N,Row2*%
X152511250Y-49435000D03*
%TO.P,J1,2*%
%TO.N,Row1*%
X149971250Y-49435000D03*
D11*
%TO.P,J1,1*%
%TO.N,Row0*%
X147431250Y-49435000D03*
%TD*%
D12*
%TO.P,MX`1,2*%
%TO.N,Net-(D1-Pad2)*%
X-129222500Y-67945000D03*
%TO.P,MX`1,1*%
%TO.N,Col0*%
X-135572500Y-70485000D03*
%TD*%
%TO.P,MX=1,2*%
%TO.N,Net-(D13-Pad2)*%
X99377500Y-67945000D03*
%TO.P,MX=1,1*%
%TO.N,Col12*%
X93027500Y-70485000D03*
%TD*%
%TO.P,MX-z1,2*%
%TO.N,Net-(D49-Pad2)*%
X-86360000Y-125095000D03*
%TO.P,MX-z1,1*%
%TO.N,Col1*%
X-92710000Y-127635000D03*
%TD*%
%TO.P,MX-Y1,2*%
%TO.N,Net-(D23-Pad2)*%
X-5397500Y-86995000D03*
%TO.P,MX-Y1,1*%
%TO.N,Col6*%
X-11747500Y-89535000D03*
%TD*%
%TO.P,MX-x1,2*%
%TO.N,Net-(D50-Pad2)*%
X-67310000Y-125095000D03*
%TO.P,MX-x1,1*%
%TO.N,Col2*%
X-73660000Y-127635000D03*
%TD*%
%TO.P,MX-W1,2*%
%TO.N,Net-(D19-Pad2)*%
X-81597500Y-86995000D03*
%TO.P,MX-W1,1*%
%TO.N,Col2*%
X-87947500Y-89535000D03*
%TD*%
%TO.P,MX-v1,2*%
%TO.N,Net-(D52-Pad2)*%
X-29210000Y-125095000D03*
%TO.P,MX-v1,1*%
%TO.N,Col4*%
X-35560000Y-127635000D03*
%TD*%
%TO.P,MX-Up1,2*%
%TO.N,Net-(D60-Pad2)*%
X181927500Y-125095000D03*
%TO.P,MX-Up1,1*%
%TO.N,Col12*%
X175577500Y-127635000D03*
%TD*%
%TO.P,MX-U1,2*%
%TO.N,Net-(D24-Pad2)*%
X13652500Y-86995000D03*
%TO.P,MX-U1,1*%
%TO.N,Col7*%
X7302500Y-89535000D03*
%TD*%
%TO.P,MX-Tab1,2*%
%TO.N,Net-(D34-Pad2)*%
X-124460000Y-86995000D03*
%TO.P,MX-Tab1,1*%
%TO.N,Col0*%
X-130810000Y-89535000D03*
%TD*%
%TO.P,MX-T1,2*%
%TO.N,Net-(D22-Pad2)*%
X-24447500Y-86995000D03*
%TO.P,MX-T1,1*%
%TO.N,Col5*%
X-30797500Y-89535000D03*
%TD*%
%TO.P,MX-Spc1,2*%
%TO.N,Net-(D64-Pad2)*%
X4127500Y-144145000D03*
%TO.P,MX-Spc1,1*%
%TO.N,Col3*%
X-2222500Y-146685000D03*
%TD*%
%TO.P,MX-s1,2*%
%TO.N,Net-(D37-Pad2)*%
X-76835000Y-106045000D03*
%TO.P,MX-s1,1*%
%TO.N,Col2*%
X-83185000Y-108585000D03*
%TD*%
%TO.P,MX-RSys1,2*%
%TO.N,Net-(D66-Pad2)*%
X108902500Y-144145000D03*
%TO.P,MX-RSys1,1*%
%TO.N,Col5*%
X102552500Y-146685000D03*
%TD*%
%TO.P,MX-RShift1,2*%
%TO.N,Net-(D59-Pad2)*%
X120808750Y-125095000D03*
%TO.P,MX-RShift1,1*%
%TO.N,Col11*%
X114458750Y-127635000D03*
%TD*%
%TO.P,MX-Right1,2*%
%TO.N,Net-(D70-Pad2)*%
X201041000Y-144145000D03*
%TO.P,MX-Right1,1*%
%TO.N,Col9*%
X194691000Y-146685000D03*
%TD*%
%TO.P,MX-RCtrl1,2*%
%TO.N,Net-(D67-Pad2)*%
X132715000Y-144145000D03*
%TO.P,MX-RCtrl1,1*%
%TO.N,Col6*%
X126365000Y-146685000D03*
%TD*%
%TO.P,MX-RAlt1,2*%
%TO.N,Net-(D65-Pad2)*%
X85090000Y-144145000D03*
%TO.P,MX-RAlt1,1*%
%TO.N,Col4*%
X78740000Y-146685000D03*
%TD*%
%TO.P,MX-R1,2*%
%TO.N,Net-(D21-Pad2)*%
X-43497500Y-86995000D03*
%TO.P,MX-R1,1*%
%TO.N,Col4*%
X-49847500Y-89535000D03*
%TD*%
%TO.P,MX-Q1,2*%
%TO.N,Net-(D18-Pad2)*%
X-100647500Y-86995000D03*
%TO.P,MX-Q1,1*%
%TO.N,Col1*%
X-106997500Y-89535000D03*
%TD*%
%TO.P,MX-PgUp1,2*%
%TO.N,Net-(D17-Pad2)*%
X199390000Y-67945000D03*
%TO.P,MX-PgUp1,1*%
%TO.N,Col11*%
X193040000Y-70485000D03*
%TD*%
%TO.P,MX-PgDn1,2*%
%TO.N,Net-(D33-Pad2)*%
X199390000Y-86995000D03*
%TO.P,MX-PgDn1,1*%
%TO.N,Col10*%
X193040000Y-89535000D03*
%TD*%
%TO.P,MX-p1,2*%
%TO.N,Net-(D27-Pad2)*%
X70866000Y-86995000D03*
%TO.P,MX-p1,1*%
%TO.N,Col10*%
X64516000Y-89535000D03*
%TD*%
%TO.P,MX-O1,2*%
%TO.N,Net-(D26-Pad2)*%
X51752500Y-86995000D03*
%TO.P,MX-O1,1*%
%TO.N,Col9*%
X45402500Y-89535000D03*
%TD*%
%TO.P,MX-n1,2*%
%TO.N,Net-(D54-Pad2)*%
X8890000Y-125095000D03*
%TO.P,MX-n1,1*%
%TO.N,Col6*%
X2540000Y-127635000D03*
%TD*%
%TO.P,MX-m1,2*%
%TO.N,Net-(D55-Pad2)*%
X27940000Y-125095000D03*
%TO.P,MX-m1,1*%
%TO.N,Col7*%
X21590000Y-127635000D03*
%TD*%
%TO.P,MX-LSys1,2*%
%TO.N,Net-(D62-Pad2)*%
X-100647500Y-144145000D03*
%TO.P,MX-LSys1,1*%
%TO.N,Col1*%
X-106997500Y-146685000D03*
%TD*%
%TO.P,MX-LShift1,2*%
%TO.N,Net-(D48-Pad2)*%
X-117300250Y-125095250D03*
%TO.P,MX-LShift1,1*%
%TO.N,Col0*%
X-123650250Y-127635250D03*
%TD*%
%TO.P,MX-Left1,2*%
%TO.N,Net-(D68-Pad2)*%
X162814000Y-144145000D03*
%TO.P,MX-Left1,1*%
%TO.N,Col7*%
X156464000Y-146685000D03*
%TD*%
%TO.P,MX-LCtrl1,2*%
%TO.N,Net-(D61-Pad2)*%
X-124460000Y-144145000D03*
%TO.P,MX-LCtrl1,1*%
%TO.N,Col0*%
X-130810000Y-146685000D03*
%TD*%
%TO.P,MX-LAlt1,2*%
%TO.N,Net-(D63-Pad2)*%
X-76835000Y-144145000D03*
%TO.P,MX-LAlt1,1*%
%TO.N,Col2*%
X-83185000Y-146685000D03*
%TD*%
%TO.P,MX-l1,2*%
%TO.N,Net-(D44-Pad2)*%
X56515000Y-106045000D03*
%TO.P,MX-l1,1*%
%TO.N,Col9*%
X50165000Y-108585000D03*
%TD*%
%TO.P,MX-k1,2*%
%TO.N,Net-(D43-Pad2)*%
X37465000Y-106045000D03*
%TO.P,MX-k1,1*%
%TO.N,Col8*%
X31115000Y-108585000D03*
%TD*%
%TO.P,MX-j1,2*%
%TO.N,Net-(D42-Pad2)*%
X18415000Y-106045000D03*
%TO.P,MX-j1,1*%
%TO.N,Col7*%
X12065000Y-108585000D03*
%TD*%
%TO.P,MX-Ins1,2*%
%TO.N,Net-(D15-Pad2)*%
X161290000Y-67945000D03*
%TO.P,MX-Ins1,1*%
%TO.N,Col13*%
X154940000Y-70485000D03*
%TD*%
%TO.P,MX-i1,2*%
%TO.N,Net-(D25-Pad2)*%
X32702500Y-86995000D03*
%TO.P,MX-i1,1*%
%TO.N,Col8*%
X26352500Y-89535000D03*
%TD*%
%TO.P,MX-Hm1,2*%
%TO.N,Net-(D16-Pad2)*%
X180340000Y-67945000D03*
%TO.P,MX-Hm1,1*%
%TO.N,Col13*%
X173990000Y-70485000D03*
%TD*%
%TO.P,MX-h1,2*%
%TO.N,Net-(D41-Pad2)*%
X-635000Y-106045000D03*
%TO.P,MX-h1,1*%
%TO.N,Col6*%
X-6985000Y-108585000D03*
%TD*%
%TO.P,MX-g1,2*%
%TO.N,Net-(D40-Pad2)*%
X-19685000Y-106045000D03*
%TO.P,MX-g1,1*%
%TO.N,Col5*%
X-26035000Y-108585000D03*
%TD*%
%TO.P,MX-f1,2*%
%TO.N,Net-(D39-Pad2)*%
X-38735000Y-106045000D03*
%TO.P,MX-f1,1*%
%TO.N,Col4*%
X-45085000Y-108585000D03*
%TD*%
%TO.P,MX-Enter1,2*%
%TO.N,Net-(D47-Pad2)*%
X125571250Y-106045000D03*
%TO.P,MX-Enter1,1*%
%TO.N,Col12*%
X119221250Y-108585000D03*
%TD*%
%TO.P,MX-end1,2*%
%TO.N,Net-(D32-Pad2)*%
X180340000Y-86995000D03*
%TO.P,MX-end1,1*%
%TO.N,Col12*%
X173990000Y-89535000D03*
%TD*%
%TO.P,MX-E1,2*%
%TO.N,Net-(D20-Pad2)*%
X-62547500Y-86995000D03*
%TO.P,MX-E1,1*%
%TO.N,Col3*%
X-68897500Y-89535000D03*
%TD*%
%TO.P,MX-Down1,2*%
%TO.N,Net-(D69-Pad2)*%
X181927500Y-144145000D03*
%TO.P,MX-Down1,1*%
%TO.N,Col8*%
X175577500Y-146685000D03*
%TD*%
%TO.P,MX-Del1,2*%
%TO.N,Net-(D31-Pad2)*%
X161290000Y-86995000D03*
%TO.P,MX-Del1,1*%
%TO.N,Col13*%
X154940000Y-89535000D03*
%TD*%
%TO.P,MX-d1,2*%
%TO.N,Net-(D38-Pad2)*%
X-57785000Y-106045000D03*
%TO.P,MX-d1,1*%
%TO.N,Col3*%
X-64135000Y-108585000D03*
%TD*%
%TO.P,MX-Caps1,2*%
%TO.N,Net-(D35-Pad2)*%
X-122078750Y-106045000D03*
%TO.P,MX-Caps1,1*%
%TO.N,Col0*%
X-128428750Y-108585000D03*
%TD*%
%TO.P,MX-c1,2*%
%TO.N,Net-(D51-Pad2)*%
X-48260000Y-125095000D03*
%TO.P,MX-c1,1*%
%TO.N,Col3*%
X-54610000Y-127635000D03*
%TD*%
%TO.P,MX-Bksp1,2*%
%TO.N,Net-(D14-Pad2)*%
X127952500Y-67945000D03*
%TO.P,MX-Bksp1,1*%
%TO.N,Col13*%
X121602500Y-70485000D03*
%TD*%
%TO.P,MX-b1,2*%
%TO.N,Net-(D53-Pad2)*%
X-10160000Y-125095000D03*
%TO.P,MX-b1,1*%
%TO.N,Col5*%
X-16510000Y-127635000D03*
%TD*%
%TO.P,MX-a1,2*%
%TO.N,Net-(D36-Pad2)*%
X-95885000Y-106045000D03*
%TO.P,MX-a1,1*%
%TO.N,Col1*%
X-102235000Y-108585000D03*
%TD*%
%TO.P,MX-]1,2*%
%TO.N,Net-(D29-Pad2)*%
X108902500Y-86995000D03*
%TO.P,MX-]1,1*%
%TO.N,Col12*%
X102552500Y-89535000D03*
%TD*%
%TO.P,MX-\u005C1,2*%
%TO.N,Net-(D30-Pad2)*%
X132715000Y-86995000D03*
%TO.P,MX-\u005C1,1*%
%TO.N,Col13*%
X126365000Y-89535000D03*
%TD*%
%TO.P,MX-[1,2*%
%TO.N,Net-(D28-Pad2)*%
X89852500Y-86995000D03*
%TO.P,MX-[1,1*%
%TO.N,Col11*%
X83502500Y-89535000D03*
%TD*%
%TO.P,MX-;1,2*%
%TO.N,Net-(D45-Pad2)*%
X75565000Y-106045000D03*
%TO.P,MX-;1,1*%
%TO.N,Col10*%
X69215000Y-108585000D03*
%TD*%
%TO.P,MX-/1,2*%
%TO.N,Net-(D58-Pad2)*%
X85090000Y-125095000D03*
%TO.P,MX-/1,1*%
%TO.N,Col10*%
X78740000Y-127635000D03*
%TD*%
%TO.P,MX-'1,2*%
%TO.N,Net-(D46-Pad2)*%
X94615000Y-106045000D03*
%TO.P,MX-'1,1*%
%TO.N,Col11*%
X88265000Y-108585000D03*
%TD*%
%TO.P,MX-1,2*%
%TO.N,Net-(D12-Pad2)*%
X80327500Y-67945000D03*
%TO.P,MX-1,1*%
%TO.N,Col11*%
X73977500Y-70485000D03*
%TD*%
%TO.P,MX-.1,2*%
%TO.N,Net-(D57-Pad2)*%
X66040000Y-125095000D03*
%TO.P,MX-.1,1*%
%TO.N,Col9*%
X59690000Y-127635000D03*
%TD*%
%TO.P,MX-\u002C1,2*%
%TO.N,Net-(D56-Pad2)*%
X46990000Y-125095000D03*
%TO.P,MX-\u002C1,1*%
%TO.N,Col8*%
X40640000Y-127635000D03*
%TD*%
%TO.P,MX9,2*%
%TO.N,Net-(D10-Pad2)*%
X42227500Y-67945000D03*
%TO.P,MX9,1*%
%TO.N,Col9*%
X35877500Y-70485000D03*
%TD*%
%TO.P,MX8,2*%
%TO.N,Net-(D9-Pad2)*%
X23177500Y-67945000D03*
%TO.P,MX8,1*%
%TO.N,Col8*%
X16827500Y-70485000D03*
%TD*%
%TO.P,MX7,2*%
%TO.N,Net-(D8-Pad2)*%
X4127500Y-67945000D03*
%TO.P,MX7,1*%
%TO.N,Col7*%
X-2222500Y-70485000D03*
%TD*%
%TO.P,MX6,2*%
%TO.N,Net-(D7-Pad2)*%
X-14922500Y-67945000D03*
%TO.P,MX6,1*%
%TO.N,Col6*%
X-21272500Y-70485000D03*
%TD*%
%TO.P,MX5,2*%
%TO.N,Net-(D6-Pad2)*%
X-33972500Y-67945000D03*
%TO.P,MX5,1*%
%TO.N,Col5*%
X-40322500Y-70485000D03*
%TD*%
%TO.P,MX4,2*%
%TO.N,Net-(D5-Pad2)*%
X-53022500Y-67945000D03*
%TO.P,MX4,1*%
%TO.N,Col4*%
X-59372500Y-70485000D03*
%TD*%
%TO.P,MX3,2*%
%TO.N,Net-(D4-Pad2)*%
X-72072500Y-67945000D03*
%TO.P,MX3,1*%
%TO.N,Col3*%
X-78422500Y-70485000D03*
%TD*%
%TO.P,MX2,2*%
%TO.N,Net-(D3-Pad2)*%
X-91122500Y-67945000D03*
%TO.P,MX2,1*%
%TO.N,Col2*%
X-97472500Y-70485000D03*
%TD*%
%TO.P,MX1,2*%
%TO.N,Net-(D2-Pad2)*%
X-110172500Y-67945000D03*
%TO.P,MX1,1*%
%TO.N,Col1*%
X-116522500Y-70485000D03*
%TD*%
%TO.P,MX0,2*%
%TO.N,Net-(D11-Pad2)*%
X61277500Y-67945000D03*
%TO.P,MX0,1*%
%TO.N,Col10*%
X54927500Y-70485000D03*
%TD*%
D13*
%TO.P,D70,2*%
%TO.N,Net-(D70-Pad2)*%
X70755000Y-51879750D03*
D14*
%TO.P,D70,1*%
%TO.N,Row4*%
X78375000Y-51879750D03*
%TD*%
D13*
%TO.P,D69,2*%
%TO.N,Net-(D69-Pad2)*%
X58055000Y-51879750D03*
D14*
%TO.P,D69,1*%
%TO.N,Row4*%
X65675000Y-51879750D03*
%TD*%
D13*
%TO.P,D68,2*%
%TO.N,Net-(D68-Pad2)*%
X44561250Y-51879750D03*
D14*
%TO.P,D68,1*%
%TO.N,Row4*%
X52181250Y-51879750D03*
%TD*%
D13*
%TO.P,D67,2*%
%TO.N,Net-(D67-Pad2)*%
X6461250Y-53403750D03*
D14*
%TO.P,D67,1*%
%TO.N,Row4*%
X14081250Y-53403750D03*
%TD*%
D13*
%TO.P,D66,2*%
%TO.N,Net-(D66-Pad2)*%
X-7032500Y-53403750D03*
D14*
%TO.P,D66,1*%
%TO.N,Row4*%
X587500Y-53403750D03*
%TD*%
D13*
%TO.P,D65,2*%
%TO.N,Net-(D65-Pad2)*%
X-19732500Y-53403750D03*
D14*
%TO.P,D65,1*%
%TO.N,Row4*%
X-12112500Y-53403750D03*
%TD*%
D13*
%TO.P,D64,2*%
%TO.N,Net-(D64-Pad2)*%
X-72120000Y-53403750D03*
D14*
%TO.P,D64,1*%
%TO.N,Row4*%
X-64500000Y-53403750D03*
%TD*%
D13*
%TO.P,D63,2*%
%TO.N,Net-(D63-Pad2)*%
X-111013750Y-53403750D03*
D14*
%TO.P,D63,1*%
%TO.N,Row4*%
X-103393750Y-53403750D03*
%TD*%
D13*
%TO.P,D62,2*%
%TO.N,Net-(D62-Pad2)*%
X-124507500Y-53403750D03*
D14*
%TO.P,D62,1*%
%TO.N,Row4*%
X-116887500Y-53403750D03*
%TD*%
D13*
%TO.P,D61,2*%
%TO.N,Net-(D61-Pad2)*%
X-137207500Y-53403750D03*
D14*
%TO.P,D61,1*%
%TO.N,Row4*%
X-129587500Y-53403750D03*
%TD*%
D13*
%TO.P,D60,2*%
%TO.N,Net-(D60-Pad2)*%
X58055000Y-44736000D03*
D14*
%TO.P,D60,1*%
%TO.N,Row3*%
X65675000Y-44736000D03*
%TD*%
D13*
%TO.P,D59,2*%
%TO.N,Net-(D59-Pad2)*%
X6461250Y-46260000D03*
D14*
%TO.P,D59,1*%
%TO.N,Row3*%
X14081250Y-46260000D03*
%TD*%
D13*
%TO.P,D58,2*%
%TO.N,Net-(D58-Pad2)*%
X-7032500Y-46260000D03*
D14*
%TO.P,D58,1*%
%TO.N,Row3*%
X587500Y-46260000D03*
%TD*%
D13*
%TO.P,D57,2*%
%TO.N,Net-(D57-Pad2)*%
X-20050000Y-46260000D03*
D14*
%TO.P,D57,1*%
%TO.N,Row3*%
X-12430000Y-46260000D03*
%TD*%
D13*
%TO.P,D56,2*%
%TO.N,Net-(D56-Pad2)*%
X-33067500Y-46260000D03*
D14*
%TO.P,D56,1*%
%TO.N,Row3*%
X-25447500Y-46260000D03*
%TD*%
D13*
%TO.P,D55,2*%
%TO.N,Net-(D55-Pad2)*%
X-46085000Y-46260000D03*
D14*
%TO.P,D55,1*%
%TO.N,Row3*%
X-38465000Y-46260000D03*
%TD*%
D13*
%TO.P,D54,2*%
%TO.N,Net-(D54-Pad2)*%
X-59102500Y-46260000D03*
D14*
%TO.P,D54,1*%
%TO.N,Row3*%
X-51482500Y-46260000D03*
%TD*%
D13*
%TO.P,D53,2*%
%TO.N,Net-(D53-Pad2)*%
X-72120000Y-46260000D03*
D14*
%TO.P,D53,1*%
%TO.N,Row3*%
X-64500000Y-46260000D03*
%TD*%
D13*
%TO.P,D52,2*%
%TO.N,Net-(D52-Pad2)*%
X-85137500Y-46260000D03*
D14*
%TO.P,D52,1*%
%TO.N,Row3*%
X-77517500Y-46260000D03*
%TD*%
D13*
%TO.P,D51,2*%
%TO.N,Net-(D51-Pad2)*%
X-98155000Y-46260000D03*
D14*
%TO.P,D51,1*%
%TO.N,Row3*%
X-90535000Y-46260000D03*
%TD*%
D13*
%TO.P,D50,2*%
%TO.N,Net-(D50-Pad2)*%
X-111172500Y-46260000D03*
D14*
%TO.P,D50,1*%
%TO.N,Row3*%
X-103552500Y-46260000D03*
%TD*%
D13*
%TO.P,D49,2*%
%TO.N,Net-(D49-Pad2)*%
X-124190000Y-46260000D03*
D14*
%TO.P,D49,1*%
%TO.N,Row3*%
X-116570000Y-46260000D03*
%TD*%
D13*
%TO.P,D48,2*%
%TO.N,Net-(D48-Pad2)*%
X-137207500Y-46260000D03*
D14*
%TO.P,D48,1*%
%TO.N,Row3*%
X-129587500Y-46260000D03*
%TD*%
D13*
%TO.P,D47,2*%
%TO.N,Net-(D47-Pad2)*%
X19161250Y-39910000D03*
D14*
%TO.P,D47,1*%
%TO.N,Row2*%
X26781250Y-39910000D03*
%TD*%
D13*
%TO.P,D46,2*%
%TO.N,Net-(D46-Pad2)*%
X6130519Y-39910000D03*
D14*
%TO.P,D46,1*%
%TO.N,Row2*%
X13750519Y-39910000D03*
%TD*%
D13*
%TO.P,D45,2*%
%TO.N,Net-(D45-Pad2)*%
X-6900210Y-39910000D03*
D14*
%TO.P,D45,1*%
%TO.N,Row2*%
X719790Y-39910000D03*
%TD*%
D13*
%TO.P,D44,2*%
%TO.N,Net-(D44-Pad2)*%
X-19930939Y-39910000D03*
D14*
%TO.P,D44,1*%
%TO.N,Row2*%
X-12310939Y-39910000D03*
%TD*%
D13*
%TO.P,D43,2*%
%TO.N,Net-(D43-Pad2)*%
X-32961668Y-39910000D03*
D14*
%TO.P,D43,1*%
%TO.N,Row2*%
X-25341668Y-39910000D03*
%TD*%
D13*
%TO.P,D42,2*%
%TO.N,Net-(D42-Pad2)*%
X-45992397Y-39910000D03*
D14*
%TO.P,D42,1*%
%TO.N,Row2*%
X-38372397Y-39910000D03*
%TD*%
D13*
%TO.P,D41,2*%
%TO.N,Net-(D41-Pad2)*%
X-59023126Y-39910000D03*
D14*
%TO.P,D41,1*%
%TO.N,Row2*%
X-51403126Y-39910000D03*
%TD*%
D13*
%TO.P,D40,2*%
%TO.N,Net-(D40-Pad2)*%
X-72053855Y-39910000D03*
D14*
%TO.P,D40,1*%
%TO.N,Row2*%
X-64433855Y-39910000D03*
%TD*%
D13*
%TO.P,D39,2*%
%TO.N,Net-(D39-Pad2)*%
X-85084584Y-39910000D03*
D14*
%TO.P,D39,1*%
%TO.N,Row2*%
X-77464584Y-39910000D03*
%TD*%
D13*
%TO.P,D38,2*%
%TO.N,Net-(D38-Pad2)*%
X-98115313Y-39910000D03*
D14*
%TO.P,D38,1*%
%TO.N,Row2*%
X-90495313Y-39910000D03*
%TD*%
D13*
%TO.P,D37,2*%
%TO.N,Net-(D37-Pad2)*%
X-111146042Y-39910000D03*
D14*
%TO.P,D37,1*%
%TO.N,Row2*%
X-103526042Y-39910000D03*
%TD*%
D13*
%TO.P,D36,2*%
%TO.N,Net-(D36-Pad2)*%
X-124176771Y-39910000D03*
D14*
%TO.P,D36,1*%
%TO.N,Row2*%
X-116556771Y-39910000D03*
%TD*%
D13*
%TO.P,D35,2*%
%TO.N,Net-(D35-Pad2)*%
X-137207500Y-39910000D03*
D14*
%TO.P,D35,1*%
%TO.N,Row2*%
X-129587500Y-39910000D03*
%TD*%
D13*
%TO.P,D34,2*%
%TO.N,Net-(D34-Pad2)*%
X-137001250Y-33337500D03*
D14*
%TO.P,D34,1*%
%TO.N,Row1*%
X-129381250Y-33337500D03*
%TD*%
D13*
%TO.P,D33,2*%
%TO.N,Net-(D33-Pad2)*%
X70755000Y-33560000D03*
D14*
%TO.P,D33,1*%
%TO.N,Row4*%
X78375000Y-33560000D03*
%TD*%
D13*
%TO.P,D32,2*%
%TO.N,Net-(D32-Pad2)*%
X57770225Y-33337500D03*
D14*
%TO.P,D32,1*%
%TO.N,Row4*%
X65390225Y-33337500D03*
%TD*%
D13*
%TO.P,D31,2*%
%TO.N,Net-(D31-Pad2)*%
X44785460Y-33337500D03*
D14*
%TO.P,D31,1*%
%TO.N,Row3*%
X52405460Y-33337500D03*
%TD*%
D13*
%TO.P,D30,2*%
%TO.N,Net-(D30-Pad2)*%
X31800695Y-33337500D03*
D14*
%TO.P,D30,1*%
%TO.N,Row1*%
X39420695Y-33337500D03*
%TD*%
D13*
%TO.P,D29,2*%
%TO.N,Net-(D29-Pad2)*%
X18815930Y-33337500D03*
D14*
%TO.P,D29,1*%
%TO.N,Row1*%
X26435930Y-33337500D03*
%TD*%
D13*
%TO.P,D28,2*%
%TO.N,Net-(D28-Pad2)*%
X5831165Y-33337500D03*
D14*
%TO.P,D28,1*%
%TO.N,Row1*%
X13451165Y-33337500D03*
%TD*%
D13*
%TO.P,D27,2*%
%TO.N,Net-(D27-Pad2)*%
X-7153600Y-33337500D03*
D14*
%TO.P,D27,1*%
%TO.N,Row1*%
X466400Y-33337500D03*
%TD*%
D13*
%TO.P,D26,2*%
%TO.N,Net-(D26-Pad2)*%
X-20138365Y-33337500D03*
D14*
%TO.P,D26,1*%
%TO.N,Row1*%
X-12518365Y-33337500D03*
%TD*%
D13*
%TO.P,D25,2*%
%TO.N,Net-(D25-Pad2)*%
X-33123130Y-33337500D03*
D14*
%TO.P,D25,1*%
%TO.N,Row1*%
X-25503130Y-33337500D03*
%TD*%
D13*
%TO.P,D24,2*%
%TO.N,Net-(D24-Pad2)*%
X-46107895Y-33337500D03*
D14*
%TO.P,D24,1*%
%TO.N,Row1*%
X-38487895Y-33337500D03*
%TD*%
D13*
%TO.P,D23,2*%
%TO.N,Net-(D23-Pad2)*%
X-59092660Y-33337500D03*
D14*
%TO.P,D23,1*%
%TO.N,Row1*%
X-51472660Y-33337500D03*
%TD*%
D13*
%TO.P,D22,2*%
%TO.N,Net-(D22-Pad2)*%
X-72077425Y-33337500D03*
D14*
%TO.P,D22,1*%
%TO.N,Row1*%
X-64457425Y-33337500D03*
%TD*%
D13*
%TO.P,D21,2*%
%TO.N,Net-(D21-Pad2)*%
X-85062190Y-33337500D03*
D14*
%TO.P,D21,1*%
%TO.N,Row1*%
X-77442190Y-33337500D03*
%TD*%
D13*
%TO.P,D20,2*%
%TO.N,Net-(D20-Pad2)*%
X-98046955Y-33337500D03*
D14*
%TO.P,D20,1*%
%TO.N,Row1*%
X-90426955Y-33337500D03*
%TD*%
D13*
%TO.P,D19,2*%
%TO.N,Net-(D19-Pad2)*%
X-111031720Y-33337500D03*
D14*
%TO.P,D19,1*%
%TO.N,Row1*%
X-103411720Y-33337500D03*
%TD*%
D13*
%TO.P,D18,2*%
%TO.N,Net-(D18-Pad2)*%
X-124016485Y-33337500D03*
D14*
%TO.P,D18,1*%
%TO.N,Row1*%
X-116396485Y-33337500D03*
%TD*%
D13*
%TO.P,D17,2*%
%TO.N,Net-(D17-Pad2)*%
X70961250Y-27781250D03*
D14*
%TO.P,D17,1*%
%TO.N,Row4*%
X78581250Y-27781250D03*
%TD*%
D13*
%TO.P,D16,2*%
%TO.N,Net-(D16-Pad2)*%
X57963590Y-27781250D03*
D14*
%TO.P,D16,1*%
%TO.N,Row4*%
X65583590Y-27781250D03*
%TD*%
D13*
%TO.P,D15,2*%
%TO.N,Net-(D15-Pad2)*%
X44965934Y-27781250D03*
D14*
%TO.P,D15,1*%
%TO.N,Row2*%
X52585934Y-27781250D03*
%TD*%
D13*
%TO.P,D14,2*%
%TO.N,Net-(D14-Pad2)*%
X31968278Y-27781250D03*
D14*
%TO.P,D14,1*%
%TO.N,Row0*%
X39588278Y-27781250D03*
%TD*%
D13*
%TO.P,D13,2*%
%TO.N,Net-(D13-Pad2)*%
X18970622Y-27781250D03*
D14*
%TO.P,D13,1*%
%TO.N,Row0*%
X26590622Y-27781250D03*
%TD*%
D13*
%TO.P,D12,2*%
%TO.N,Net-(D12-Pad2)*%
X5972966Y-27781250D03*
D14*
%TO.P,D12,1*%
%TO.N,Row0*%
X13592966Y-27781250D03*
%TD*%
D13*
%TO.P,D11,2*%
%TO.N,Net-(D11-Pad2)*%
X-7024690Y-27781250D03*
D14*
%TO.P,D11,1*%
%TO.N,Row0*%
X595310Y-27781250D03*
%TD*%
D13*
%TO.P,D10,2*%
%TO.N,Net-(D10-Pad2)*%
X-20022346Y-27781250D03*
D14*
%TO.P,D10,1*%
%TO.N,Row0*%
X-12402346Y-27781250D03*
%TD*%
D13*
%TO.P,D9,2*%
%TO.N,Net-(D9-Pad2)*%
X-33020002Y-27781250D03*
D14*
%TO.P,D9,1*%
%TO.N,Row0*%
X-25400002Y-27781250D03*
%TD*%
D13*
%TO.P,D8,2*%
%TO.N,Net-(D8-Pad2)*%
X-46017658Y-27781250D03*
D14*
%TO.P,D8,1*%
%TO.N,Row0*%
X-38397658Y-27781250D03*
%TD*%
D13*
%TO.P,D7,2*%
%TO.N,Net-(D7-Pad2)*%
X-59015314Y-27781250D03*
D14*
%TO.P,D7,1*%
%TO.N,Row0*%
X-51395314Y-27781250D03*
%TD*%
D13*
%TO.P,D6,2*%
%TO.N,Net-(D6-Pad2)*%
X-72012970Y-27781250D03*
D14*
%TO.P,D6,1*%
%TO.N,Row0*%
X-64392970Y-27781250D03*
%TD*%
D13*
%TO.P,D5,2*%
%TO.N,Net-(D5-Pad2)*%
X-85010626Y-27781250D03*
D14*
%TO.P,D5,1*%
%TO.N,Row0*%
X-77390626Y-27781250D03*
%TD*%
D13*
%TO.P,D4,2*%
%TO.N,Net-(D4-Pad2)*%
X-98008282Y-27781250D03*
D14*
%TO.P,D4,1*%
%TO.N,Row0*%
X-90388282Y-27781250D03*
%TD*%
D13*
%TO.P,D3,2*%
%TO.N,Net-(D3-Pad2)*%
X-111005938Y-27781250D03*
D14*
%TO.P,D3,1*%
%TO.N,Row0*%
X-103385938Y-27781250D03*
%TD*%
D13*
%TO.P,D2,2*%
%TO.N,Net-(D2-Pad2)*%
X-124003594Y-27781250D03*
D14*
%TO.P,D2,1*%
%TO.N,Row0*%
X-116383594Y-27781250D03*
%TD*%
D13*
%TO.P,D1,2*%
%TO.N,Net-(D1-Pad2)*%
X-137001250Y-27781250D03*
D14*
%TO.P,D1,1*%
%TO.N,Row0*%
X-129381250Y-27781250D03*
%TD*%
D15*
%TO.N,*%
X-142367000Y-25400000D03*
X209296000Y-49403000D03*
X209804000Y-160020000D03*
X-142875000Y-160020000D03*
D16*
%TO.N,Col11*%
X142748000Y-129921000D03*
X142748000Y-122555000D03*
X193040000Y-57404000D03*
X183896000Y-57404000D03*
%TO.N,Col10*%
X187325000Y-60706000D03*
X178816000Y-59944000D03*
%TD*%
D17*
%TO.N,Row0*%
X27717623Y-26654249D02*
X26590622Y-27781250D01*
X38461277Y-26654249D02*
X27717623Y-26654249D01*
X39588278Y-27781250D02*
X38461277Y-26654249D01*
X14719967Y-26654249D02*
X13592966Y-27781250D01*
X25463621Y-26654249D02*
X14719967Y-26654249D01*
X26590622Y-27781250D02*
X25463621Y-26654249D01*
X1722311Y-26654249D02*
X595310Y-27781250D01*
X12465965Y-26654249D02*
X1722311Y-26654249D01*
X13592966Y-27781250D02*
X12465965Y-26654249D01*
X-11275345Y-26654249D02*
X-12402346Y-27781250D01*
X-531691Y-26654249D02*
X-11275345Y-26654249D01*
X595310Y-27781250D02*
X-531691Y-26654249D01*
X-24273001Y-26654249D02*
X-25400002Y-27781250D01*
X-13529347Y-26654249D02*
X-24273001Y-26654249D01*
X-12402346Y-27781250D02*
X-13529347Y-26654249D01*
X-37270657Y-26654249D02*
X-38397658Y-27781250D01*
X-26527003Y-26654249D02*
X-37270657Y-26654249D01*
X-25400002Y-27781250D02*
X-26527003Y-26654249D01*
X-50268313Y-26654249D02*
X-51395314Y-27781250D01*
X-39524659Y-26654249D02*
X-50268313Y-26654249D01*
X-38397658Y-27781250D02*
X-39524659Y-26654249D01*
X-52522315Y-26654249D02*
X-63265969Y-26654249D01*
X-63265969Y-26654249D02*
X-64392970Y-27781250D01*
X-51395314Y-27781250D02*
X-52522315Y-26654249D01*
X-76263625Y-26654249D02*
X-77390626Y-27781250D01*
X-65519971Y-26654249D02*
X-76263625Y-26654249D01*
X-64392970Y-27781250D02*
X-65519971Y-26654249D01*
X-89261281Y-26654249D02*
X-90388282Y-27781250D01*
X-78517627Y-26654249D02*
X-89261281Y-26654249D01*
X-77390626Y-27781250D02*
X-78517627Y-26654249D01*
X-102258937Y-26654249D02*
X-103385938Y-27781250D01*
X-91515283Y-26654249D02*
X-102258937Y-26654249D01*
X-90388282Y-27781250D02*
X-91515283Y-26654249D01*
X-104512939Y-26654249D02*
X-115256593Y-26654249D01*
X-115256593Y-26654249D02*
X-116383594Y-27781250D01*
X-103385938Y-27781250D02*
X-104512939Y-26654249D01*
X-128254249Y-26654249D02*
X-129381250Y-27781250D01*
X-117510595Y-26654249D02*
X-128254249Y-26654249D01*
X-116383594Y-27781250D02*
X-117510595Y-26654249D01*
X147288000Y-49435000D02*
X147431250Y-49435000D01*
X65958363Y-24838210D02*
X79753012Y-24838210D01*
X79753012Y-24838210D02*
X81245030Y-26330227D01*
X81245030Y-53403766D02*
X83302224Y-55460960D01*
X86985228Y-55460960D02*
X87747228Y-56222960D01*
X81245030Y-26330227D02*
X81245030Y-53403766D01*
X83302224Y-55460960D02*
X86985228Y-55460960D01*
X126355228Y-56222960D02*
X127244228Y-57111960D01*
X87747228Y-56222960D02*
X126355228Y-56222960D01*
X39588278Y-27781250D02*
X40715279Y-26654249D01*
X65504354Y-25292219D02*
X65958363Y-24838210D01*
X40715279Y-26654249D02*
X50882266Y-26654249D01*
X56858458Y-25292219D02*
X65504354Y-25292219D01*
X50882266Y-26654249D02*
X51336276Y-26200239D01*
X55950439Y-26200239D02*
X56858458Y-25292219D01*
X51336276Y-26200239D02*
X55950439Y-26200239D01*
X147415000Y-49435000D02*
X139738040Y-57111960D01*
X147431250Y-49435000D02*
X147415000Y-49435000D01*
X127244228Y-57111960D02*
X139738040Y-57111960D01*
%TO.N,Row1*%
X-117523486Y-32210499D02*
X-116396485Y-33337500D01*
X-128254249Y-32210499D02*
X-117523486Y-32210499D01*
X-129381250Y-33337500D02*
X-128254249Y-32210499D01*
X-116396485Y-33337500D02*
X-116395500Y-33337500D01*
X-104538721Y-32210499D02*
X-103411720Y-33337500D01*
X-115268499Y-32210499D02*
X-104538721Y-32210499D01*
X-116395500Y-33337500D02*
X-115268499Y-32210499D01*
X-103411720Y-33337500D02*
X-103411720Y-33307720D01*
X-91553956Y-32210499D02*
X-90426955Y-33337500D01*
X-102314499Y-32210499D02*
X-91553956Y-32210499D01*
X-103411720Y-33307720D02*
X-102314499Y-32210499D01*
X-90426955Y-33337500D02*
X-90360500Y-33337500D01*
X-78569191Y-32210499D02*
X-77442190Y-33337500D01*
X-89233499Y-32210499D02*
X-78569191Y-32210499D01*
X-90360500Y-33337500D02*
X-89233499Y-32210499D01*
X-77442190Y-33337500D02*
X-77279500Y-33337500D01*
X-65584426Y-32210499D02*
X-64457425Y-33337500D01*
X-76152499Y-32210499D02*
X-65584426Y-32210499D01*
X-77279500Y-33337500D02*
X-76152499Y-32210499D01*
X-64457425Y-33337500D02*
X-64452500Y-33337500D01*
X-52599661Y-32210499D02*
X-51472660Y-33337500D01*
X-63325499Y-32210499D02*
X-52599661Y-32210499D01*
X-64452500Y-33337500D02*
X-63325499Y-32210499D01*
X-39614896Y-32210499D02*
X-38487895Y-33337500D01*
X-50371499Y-32210499D02*
X-39614896Y-32210499D01*
X-51472660Y-33311660D02*
X-50371499Y-32210499D01*
X-51472660Y-33337500D02*
X-51472660Y-33311660D01*
X-37360894Y-32210499D02*
X-26630131Y-32210499D01*
X-26630131Y-32210499D02*
X-25503130Y-33337500D01*
X-38487895Y-33337500D02*
X-37360894Y-32210499D01*
X-13645366Y-32210499D02*
X-12518365Y-33337500D01*
X-24376129Y-32210499D02*
X-13645366Y-32210499D01*
X-25503130Y-33337500D02*
X-24376129Y-32210499D01*
X-12518365Y-33337500D02*
X-12509500Y-33337500D01*
X-660601Y-32210499D02*
X466400Y-33337500D01*
X-11382499Y-32210499D02*
X-660601Y-32210499D01*
X-12509500Y-33337500D02*
X-11382499Y-32210499D01*
X466400Y-33337500D02*
X466400Y-33315600D01*
X12324164Y-32210499D02*
X13451165Y-33337500D01*
X1571501Y-32210499D02*
X12324164Y-32210499D01*
X466400Y-33315600D02*
X1571501Y-32210499D01*
X13451165Y-33337500D02*
X13525500Y-33337500D01*
X25308929Y-32210499D02*
X26435930Y-33337500D01*
X14652501Y-32210499D02*
X25308929Y-32210499D01*
X13525500Y-33337500D02*
X14652501Y-32210499D01*
X26435930Y-33337500D02*
X26435930Y-33254070D01*
X27479501Y-32210499D02*
X38293694Y-32210499D01*
X38293694Y-32210499D02*
X39420695Y-33337500D01*
X26435930Y-33254070D02*
X27479501Y-32210499D01*
X149971250Y-49435000D02*
X149971250Y-49926750D01*
X40386000Y-32258000D02*
X39420695Y-33223305D01*
X43554932Y-32258000D02*
X40386000Y-32258000D01*
X44643941Y-31168990D02*
X43554932Y-32258000D01*
X56138496Y-26654249D02*
X51524333Y-26654249D01*
X65692411Y-25746229D02*
X57046515Y-25746229D01*
X50365010Y-31168990D02*
X44643941Y-31168990D01*
X127056169Y-57565970D02*
X126167171Y-56676970D01*
X51308000Y-26870582D02*
X51308000Y-30226000D01*
X141840280Y-57565970D02*
X127056169Y-57565970D01*
X51308000Y-30226000D02*
X50365010Y-31168990D01*
X87559171Y-56676970D02*
X86797171Y-55914970D01*
X57046515Y-25746229D02*
X56138496Y-26654249D01*
X126167171Y-56676970D02*
X87559171Y-56676970D01*
X51524333Y-26654249D02*
X51308000Y-26870582D01*
X86797171Y-55914970D02*
X83114168Y-55914970D01*
X149971250Y-49435000D02*
X141840280Y-57565970D01*
X83114168Y-55914970D02*
X80791020Y-53591822D01*
X39420695Y-33223305D02*
X39420695Y-33337500D01*
X80791020Y-26518284D02*
X79564955Y-25292219D01*
X80791020Y-53591822D02*
X80791020Y-26518284D01*
X79564955Y-25292219D02*
X66146420Y-25292219D01*
X66146420Y-25292219D02*
X65692411Y-25746229D01*
%TO.N,Row2*%
X52585934Y-27781250D02*
X52585934Y-30345066D01*
X52585934Y-30345066D02*
X51308000Y-31623000D01*
X44831998Y-31623000D02*
X36576998Y-39878000D01*
X51308000Y-31623000D02*
X44831998Y-31623000D01*
X26813250Y-39878000D02*
X26781250Y-39910000D01*
X36576998Y-39878000D02*
X26813250Y-39878000D01*
X14877520Y-38782999D02*
X13750519Y-39910000D01*
X25654249Y-38782999D02*
X14877520Y-38782999D01*
X26781250Y-39910000D02*
X25654249Y-38782999D01*
X1846791Y-38782999D02*
X719790Y-39910000D01*
X12623518Y-38782999D02*
X1846791Y-38782999D01*
X13750519Y-39910000D02*
X12623518Y-38782999D01*
X-11183938Y-38782999D02*
X-12310939Y-39910000D01*
X-407211Y-38782999D02*
X-11183938Y-38782999D01*
X719790Y-39910000D02*
X-407211Y-38782999D01*
X-24214667Y-38782999D02*
X-25341668Y-39910000D01*
X-13437940Y-38782999D02*
X-24214667Y-38782999D01*
X-12310939Y-39910000D02*
X-13437940Y-38782999D01*
X-37245396Y-38782999D02*
X-38372397Y-39910000D01*
X-26468669Y-38782999D02*
X-37245396Y-38782999D01*
X-25341668Y-39910000D02*
X-26468669Y-38782999D01*
X-50276125Y-38782999D02*
X-51403126Y-39910000D01*
X-39499398Y-38782999D02*
X-50276125Y-38782999D01*
X-38372397Y-39910000D02*
X-39499398Y-38782999D01*
X-63306854Y-38782999D02*
X-64433855Y-39910000D01*
X-52530127Y-38782999D02*
X-63306854Y-38782999D01*
X-51403126Y-39910000D02*
X-52530127Y-38782999D01*
X-65560856Y-38782999D02*
X-76337583Y-38782999D01*
X-76337583Y-38782999D02*
X-77464584Y-39910000D01*
X-64433855Y-39910000D02*
X-65560856Y-38782999D01*
X-89368312Y-38782999D02*
X-90495313Y-39910000D01*
X-78591585Y-38782999D02*
X-89368312Y-38782999D01*
X-77464584Y-39910000D02*
X-78591585Y-38782999D01*
X-91622314Y-38782999D02*
X-102399041Y-38782999D01*
X-102399041Y-38782999D02*
X-103526042Y-39910000D01*
X-90495313Y-39910000D02*
X-91622314Y-38782999D01*
X-115429770Y-38782999D02*
X-116556771Y-39910000D01*
X-104653043Y-38782999D02*
X-115429770Y-38782999D01*
X-103526042Y-39910000D02*
X-104653043Y-38782999D01*
X-128460499Y-38782999D02*
X-129587500Y-39910000D01*
X-117683772Y-38782999D02*
X-128460499Y-38782999D01*
X-116556771Y-39910000D02*
X-117683772Y-38782999D01*
X55653562Y-27781250D02*
X52585934Y-27781250D01*
X65880468Y-26200239D02*
X57234572Y-26200239D01*
X87371114Y-57130980D02*
X86609114Y-56368980D01*
X57234572Y-26200239D02*
X55653562Y-27781250D01*
X80337010Y-26706341D02*
X79376898Y-25746229D01*
X126868112Y-58019980D02*
X125979114Y-57130980D01*
X143926270Y-58019980D02*
X126868112Y-58019980D01*
X82926112Y-56368980D02*
X80337010Y-53779878D01*
X80337010Y-53779878D02*
X80337010Y-26706341D01*
X152511250Y-49435000D02*
X143926270Y-58019980D01*
X125979114Y-57130980D02*
X87371114Y-57130980D01*
X66334477Y-25746229D02*
X65880468Y-26200239D01*
X86609114Y-56368980D02*
X82926112Y-56368980D01*
X79376898Y-25746229D02*
X66334477Y-25746229D01*
%TO.N,Row3*%
X-128460499Y-45132999D02*
X-117697001Y-45132999D01*
X-117697001Y-45132999D02*
X-116570000Y-46260000D01*
X-129587500Y-46260000D02*
X-128460499Y-45132999D01*
X-104679501Y-45132999D02*
X-103552500Y-46260000D01*
X-115442999Y-45132999D02*
X-104679501Y-45132999D01*
X-116570000Y-46260000D02*
X-115442999Y-45132999D01*
X-91662001Y-45132999D02*
X-90535000Y-46260000D01*
X-102425499Y-45132999D02*
X-91662001Y-45132999D01*
X-103552500Y-46260000D02*
X-102425499Y-45132999D01*
X-90535000Y-46260000D02*
X-90535000Y-46212000D01*
X-89455999Y-45132999D02*
X-78644501Y-45132999D01*
X-78644501Y-45132999D02*
X-77517500Y-46260000D01*
X-90535000Y-46212000D02*
X-89455999Y-45132999D01*
X-77517500Y-46260000D02*
X-77502000Y-46260000D01*
X-65627001Y-45132999D02*
X-64500000Y-46260000D01*
X-76374999Y-45132999D02*
X-65627001Y-45132999D01*
X-77502000Y-46260000D02*
X-76374999Y-45132999D01*
X-64500000Y-46260000D02*
X-64500000Y-46212000D01*
X-63420999Y-45132999D02*
X-52609501Y-45132999D01*
X-52609501Y-45132999D02*
X-51482500Y-46260000D01*
X-64500000Y-46212000D02*
X-63420999Y-45132999D01*
X-39592001Y-45132999D02*
X-38465000Y-46260000D01*
X-50355499Y-45132999D02*
X-39592001Y-45132999D01*
X-51482500Y-46260000D02*
X-50355499Y-45132999D01*
X-26574501Y-45132999D02*
X-25447500Y-46260000D01*
X-37337999Y-45132999D02*
X-26574501Y-45132999D01*
X-38465000Y-46260000D02*
X-37337999Y-45132999D01*
X-24320499Y-45132999D02*
X-13557001Y-45132999D01*
X-13557001Y-45132999D02*
X-12430000Y-46260000D01*
X-25447500Y-46260000D02*
X-24320499Y-45132999D01*
X-539501Y-45132999D02*
X587500Y-46260000D01*
X-11302999Y-45132999D02*
X-539501Y-45132999D01*
X-12430000Y-46260000D02*
X-11302999Y-45132999D01*
X12954249Y-45132999D02*
X14081250Y-46260000D01*
X1714501Y-45132999D02*
X12954249Y-45132999D01*
X587500Y-46260000D02*
X1714501Y-45132999D01*
X14081250Y-46260000D02*
X14081250Y-46243750D01*
X65675000Y-43682000D02*
X65675000Y-44736000D01*
X63222460Y-41229460D02*
X65675000Y-43682000D01*
X14081250Y-46260000D02*
X14081250Y-46116750D01*
X64547999Y-45863001D02*
X65675000Y-44736000D01*
X14081250Y-46116750D02*
X14913520Y-45284480D01*
X14913520Y-45284480D02*
X56935518Y-45284480D01*
X56935518Y-45284480D02*
X57514039Y-45863001D01*
X57514039Y-45863001D02*
X64547999Y-45863001D01*
X60297420Y-41229460D02*
X52405460Y-33337500D01*
X63222460Y-41229460D02*
X60297420Y-41229460D01*
X52405460Y-31671418D02*
X52405460Y-33337500D01*
X57422629Y-26654249D02*
X52405460Y-31671418D01*
X125791057Y-57584990D02*
X87183057Y-57584990D01*
X79188841Y-26200239D02*
X66522534Y-26200239D01*
X126680056Y-58473990D02*
X125791057Y-57584990D01*
X66068525Y-26654249D02*
X57422629Y-26654249D01*
X79883000Y-53967934D02*
X79883000Y-26894398D01*
X146012260Y-58473990D02*
X126680056Y-58473990D01*
X87183057Y-57584990D02*
X86421057Y-56822990D01*
X155051250Y-49435000D02*
X146012260Y-58473990D01*
X82738056Y-56822990D02*
X79883000Y-53967934D01*
X86421057Y-56822990D02*
X82738056Y-56822990D01*
X79883000Y-26894398D02*
X79188841Y-26200239D01*
X66522534Y-26200239D02*
X66068525Y-26654249D01*
%TO.N,Row4*%
X-118475250Y-51816000D02*
X-116887500Y-53403750D01*
X-128016000Y-51816000D02*
X-118475250Y-51816000D01*
X-129587500Y-53403750D02*
X-129587500Y-53387500D01*
X-129587500Y-53387500D02*
X-128016000Y-51816000D01*
X-116887500Y-53403750D02*
X-116887500Y-53387500D01*
X-116887500Y-53387500D02*
X-115443000Y-51943000D01*
X-103800500Y-51943000D02*
X-103393750Y-52349750D01*
X-103393750Y-52349750D02*
X-103393750Y-53403750D01*
X-115443000Y-51943000D02*
X-103800500Y-51943000D01*
X-65627001Y-52276749D02*
X-64500000Y-53403750D01*
X-102266749Y-52276749D02*
X-65627001Y-52276749D01*
X-103393750Y-53403750D02*
X-102266749Y-52276749D01*
X-13239501Y-52276749D02*
X-12112500Y-53403750D01*
X-63372999Y-52276749D02*
X-13239501Y-52276749D01*
X-64500000Y-53403750D02*
X-63372999Y-52276749D01*
X-539501Y-52276749D02*
X587500Y-53403750D01*
X-10985499Y-52276749D02*
X-539501Y-52276749D01*
X-12112500Y-53403750D02*
X-10985499Y-52276749D01*
X12954249Y-52276749D02*
X14081250Y-53403750D01*
X1714501Y-52276749D02*
X12954249Y-52276749D01*
X587500Y-53403750D02*
X1714501Y-52276749D01*
X51054249Y-50752749D02*
X52181250Y-51879750D01*
X16732251Y-50752749D02*
X51054249Y-50752749D01*
X14081250Y-53403750D02*
X16732251Y-50752749D01*
X64547999Y-50752749D02*
X65675000Y-51879750D01*
X53308251Y-50752749D02*
X64547999Y-50752749D01*
X52181250Y-51879750D02*
X53308251Y-50752749D01*
X78581250Y-33353750D02*
X78375000Y-33560000D01*
X78581250Y-27781250D02*
X78581250Y-33353750D01*
X78375000Y-33560000D02*
X78375000Y-49768000D01*
X65583590Y-33144135D02*
X65390225Y-33337500D01*
X65583590Y-27781250D02*
X65583590Y-33144135D01*
X153432250Y-53594000D02*
X157591250Y-49435000D01*
X78375000Y-51879750D02*
X78422750Y-51879750D01*
X77454249Y-26654249D02*
X78581250Y-27781250D01*
X66710591Y-26654249D02*
X77454249Y-26654249D01*
X65583590Y-27781250D02*
X66710591Y-26654249D01*
X66802001Y-34749276D02*
X65390225Y-33337500D01*
X66802001Y-50752749D02*
X66802001Y-34749276D01*
X65675000Y-51879750D02*
X66802001Y-50752749D01*
X78375000Y-49768000D02*
X78375000Y-51879750D01*
X153432250Y-53594000D02*
X153416000Y-53594000D01*
X153416000Y-53594000D02*
X148082000Y-58928000D01*
X148082000Y-58928000D02*
X126492000Y-58928000D01*
X126492000Y-58928000D02*
X125603000Y-58039000D01*
X125603000Y-58039000D02*
X86995000Y-58039000D01*
X86995000Y-58039000D02*
X86233000Y-57277000D01*
X86233000Y-57277000D02*
X82550000Y-57277000D01*
X78375000Y-53102000D02*
X78375000Y-51879750D01*
X82550000Y-57277000D02*
X78375000Y-53102000D01*
%TO.N,Col13*%
X121602500Y-84772500D02*
X126365000Y-89535000D01*
X121602500Y-70485000D02*
X121602500Y-84772500D01*
X126365000Y-89535000D02*
X154940000Y-89535000D01*
X154940000Y-89535000D02*
X154940000Y-70485000D01*
X154940000Y-70485000D02*
X173990000Y-70485000D01*
X195040000Y-49435000D02*
X195691250Y-49435000D01*
X195691250Y-49435000D02*
X175514000Y-69612250D01*
X174862750Y-69612250D02*
X173990000Y-70485000D01*
X175514000Y-69612250D02*
X174862750Y-69612250D01*
%TO.N,Col12*%
X119221250Y-114975732D02*
X119221250Y-108585000D01*
X131880518Y-127635000D02*
X119221250Y-114975732D01*
X175577500Y-127635000D02*
X131880518Y-127635000D01*
X102552500Y-97827181D02*
X102552500Y-89535000D01*
X106198319Y-101473000D02*
X102552500Y-97827181D01*
X119221250Y-108585000D02*
X112109250Y-101473000D01*
X112109250Y-101473000D02*
X106198319Y-101473000D01*
X102552500Y-89535000D02*
X93091000Y-80073500D01*
X93091000Y-70548500D02*
X93027500Y-70485000D01*
X93091000Y-80073500D02*
X93091000Y-70548500D01*
X173990000Y-126047500D02*
X173990000Y-89535000D01*
X175577500Y-127635000D02*
X173990000Y-126047500D01*
X173101000Y-89535000D02*
X173990000Y-89535000D01*
X138395288Y-68345011D02*
X133750010Y-68345011D01*
X118618000Y-71320538D02*
X118618000Y-94869000D01*
X141389288Y-65351010D02*
X138395288Y-68345011D01*
X193151250Y-49435000D02*
X177235240Y-65351010D01*
X177235240Y-65351010D02*
X141389288Y-65351010D01*
X131897999Y-66492999D02*
X123445539Y-66492999D01*
X123445539Y-66492999D02*
X118618000Y-71320538D01*
X133750010Y-68345011D02*
X131897999Y-66492999D01*
X118618000Y-94869000D02*
X126037999Y-102288999D01*
X126037999Y-102288999D02*
X160347001Y-102288999D01*
X160347001Y-102288999D02*
X173101000Y-89535000D01*
%TO.N,Col11*%
X114458750Y-127635000D02*
X100965000Y-127635000D01*
X88265000Y-114935000D02*
X88265000Y-108585000D01*
X100965000Y-127635000D02*
X88265000Y-114935000D01*
X84991599Y-105311599D02*
X84991599Y-105184599D01*
X88265000Y-108585000D02*
X84991599Y-105311599D01*
X83502500Y-103695500D02*
X83502500Y-89535000D01*
X84991599Y-105184599D02*
X83502500Y-103695500D01*
X73977500Y-80010000D02*
X73977500Y-70485000D01*
X83502500Y-89535000D02*
X73977500Y-80010000D01*
X131238452Y-127635000D02*
X133397452Y-129794000D01*
X114458750Y-127635000D02*
X131238452Y-127635000D01*
X133397452Y-129794000D02*
X141986000Y-129794000D01*
X141986000Y-129794000D02*
X142621000Y-129794000D01*
X142621000Y-129794000D02*
X142748000Y-129921000D01*
X142748000Y-119641068D02*
X128202966Y-105096034D01*
X142748000Y-122555000D02*
X142748000Y-119641068D01*
X128202966Y-105096034D02*
X128389933Y-105283000D01*
X123257482Y-66038989D02*
X117856000Y-71440471D01*
X132086056Y-66038989D02*
X123257482Y-66038989D01*
X117856000Y-71440471D02*
X117856000Y-94749066D01*
X175149250Y-64897000D02*
X141201232Y-64897000D01*
X117915967Y-94809033D02*
X128202966Y-105096034D01*
X141201232Y-64897000D02*
X138207231Y-67891001D01*
X117856000Y-94749066D02*
X117915967Y-94809033D01*
X138207231Y-67891001D02*
X133938067Y-67891001D01*
X133938067Y-67891001D02*
X132086056Y-66038989D01*
X193040000Y-70485000D02*
X193040000Y-59436000D01*
X193040000Y-59436000D02*
X193040000Y-57404000D01*
X183332625Y-56840625D02*
X183332625Y-56713625D01*
X183896000Y-57404000D02*
X183332625Y-56840625D01*
X190611250Y-49435000D02*
X183332625Y-56713625D01*
X183332625Y-56713625D02*
X175149250Y-64897000D01*
%TO.N,Col10*%
X69215000Y-118110000D02*
X69215000Y-108585000D01*
X78740000Y-127635000D02*
X69215000Y-118110000D01*
X64516000Y-103886000D02*
X64516000Y-89535000D01*
X69215000Y-108585000D02*
X64516000Y-103886000D01*
X54927500Y-79946500D02*
X54927500Y-70485000D01*
X64516000Y-89535000D02*
X54927500Y-79946500D01*
X54927500Y-70485000D02*
X61312470Y-64100030D01*
X61312470Y-64100030D02*
X173406220Y-64100030D01*
X193040000Y-89535000D02*
X187452000Y-83947000D01*
X187452000Y-83947000D02*
X187452000Y-60833000D01*
X187452000Y-60833000D02*
X187325000Y-60706000D01*
X178816000Y-59944000D02*
X178252625Y-59380625D01*
X178252625Y-59380625D02*
X178252625Y-59253625D01*
X173406220Y-64100030D02*
X178252625Y-59253625D01*
X178252625Y-59253625D02*
X188071250Y-49435000D01*
%TO.N,Col9*%
X194691000Y-146685000D02*
X190754000Y-146685000D01*
X168028066Y-141986000D02*
X161097057Y-135054990D01*
X62537990Y-135054990D02*
X59690000Y-132207000D01*
X190754000Y-146685000D02*
X186055000Y-141986000D01*
X186055000Y-141986000D02*
X168028066Y-141986000D01*
X59690000Y-132207000D02*
X59690000Y-127635000D01*
X161097057Y-135054990D02*
X62537990Y-135054990D01*
X50165000Y-118110000D02*
X50165000Y-108585000D01*
X59690000Y-127635000D02*
X50165000Y-118110000D01*
X45402500Y-103822500D02*
X45402500Y-89535000D01*
X50165000Y-108585000D02*
X45402500Y-103822500D01*
X35877500Y-80010000D02*
X35877500Y-70485000D01*
X45402500Y-89535000D02*
X35877500Y-80010000D01*
X171320230Y-63646020D02*
X185531250Y-49435000D01*
X35877500Y-70485000D02*
X42716480Y-63646020D01*
X42716480Y-63646020D02*
X171320230Y-63646020D01*
%TO.N,Col8*%
X40640000Y-133096000D02*
X40640000Y-127635000D01*
X43053000Y-135509000D02*
X40640000Y-133096000D01*
X175577500Y-146685000D02*
X172085000Y-146685000D01*
X160909000Y-135509000D02*
X43053000Y-135509000D01*
X172085000Y-146685000D02*
X160909000Y-135509000D01*
X31115000Y-118110000D02*
X31115000Y-108585000D01*
X40640000Y-127635000D02*
X31115000Y-118110000D01*
X26352500Y-103822500D02*
X26352500Y-89535000D01*
X31115000Y-108585000D02*
X26352500Y-103822500D01*
X26352500Y-89535000D02*
X18224500Y-81407000D01*
X18224500Y-81407000D02*
X18224500Y-81343500D01*
X16827500Y-79946500D02*
X16827500Y-70485000D01*
X18224500Y-81343500D02*
X16827500Y-79946500D01*
X16827500Y-70485000D02*
X24120490Y-63192010D01*
X169234240Y-63192010D02*
X182991250Y-49435000D01*
X24120490Y-63192010D02*
X169234240Y-63192010D01*
%TO.N,Col7*%
X-2222500Y-80010000D02*
X7302500Y-89535000D01*
X-2222500Y-70485000D02*
X-2222500Y-80010000D01*
X7302500Y-105853538D02*
X10033962Y-108585000D01*
X10033962Y-108585000D02*
X12065000Y-108585000D01*
X7302500Y-89535000D02*
X7302500Y-105853538D01*
X19558962Y-127635000D02*
X21590000Y-127635000D01*
X12065000Y-120141038D02*
X19558962Y-127635000D01*
X12065000Y-108585000D02*
X12065000Y-120141038D01*
X150548990Y-140769990D02*
X156464000Y-146685000D01*
X21590000Y-127635000D02*
X21590000Y-135054990D01*
X24257000Y-137721990D02*
X94873623Y-137721990D01*
X21590000Y-135054990D02*
X24257000Y-137721990D01*
X94873623Y-137721990D02*
X97921623Y-140769990D01*
X97921623Y-140769990D02*
X150548990Y-140769990D01*
X-2222500Y-70485000D02*
X5524500Y-62738000D01*
X167148250Y-62738000D02*
X180451250Y-49435000D01*
X5524500Y-62738000D02*
X167148250Y-62738000D01*
%TO.N,Col6*%
X2540000Y-135001000D02*
X2540000Y-127635000D01*
X5715000Y-138176000D02*
X2540000Y-135001000D01*
X26542038Y-138176000D02*
X5715000Y-138176000D01*
X26561127Y-138195089D02*
X26542038Y-138176000D01*
X120904000Y-141224000D02*
X97733566Y-141224000D01*
X126365000Y-146685000D02*
X120904000Y-141224000D01*
X97733566Y-141224000D02*
X94685566Y-138176000D01*
X74275911Y-138195089D02*
X26561127Y-138195089D01*
X94685566Y-138176000D02*
X74295000Y-138176000D01*
X74295000Y-138176000D02*
X74275911Y-138195089D01*
X2540000Y-127635000D02*
X-6985000Y-118110000D01*
X-6985000Y-118110000D02*
X-6985000Y-108585000D01*
X-6985000Y-108585000D02*
X-11684000Y-103886000D01*
X-11684000Y-89598500D02*
X-11747500Y-89535000D01*
X-11684000Y-103886000D02*
X-11684000Y-89598500D01*
X-21272500Y-80010000D02*
X-21272500Y-70485000D01*
X-11747500Y-89535000D02*
X-21272500Y-80010000D01*
X165151220Y-62195030D02*
X177911250Y-49435000D01*
X-12944490Y-62195030D02*
X165151220Y-62195030D01*
X-21272500Y-70485000D02*
X-12963510Y-62176010D01*
X-12963510Y-62176010D02*
X-12944490Y-62195030D01*
%TO.N,Col5*%
X94516599Y-138649099D02*
X-12480901Y-138649099D01*
X102552500Y-146685000D02*
X94516599Y-138649099D01*
X-16510000Y-134620000D02*
X-16510000Y-127635000D01*
X-12480901Y-138649099D02*
X-16510000Y-134620000D01*
X-26035000Y-118110000D02*
X-26035000Y-108585000D01*
X-16510000Y-127635000D02*
X-26035000Y-118110000D01*
X-30797500Y-103822500D02*
X-30797500Y-89535000D01*
X-26035000Y-108585000D02*
X-30797500Y-103822500D01*
X-38896901Y-81499099D02*
X-40322500Y-80073500D01*
X-40322500Y-80073500D02*
X-40322500Y-70485000D01*
X-30797500Y-89535000D02*
X-38833401Y-81499099D01*
X-38833401Y-81499099D02*
X-38896901Y-81499099D01*
X-40322500Y-70485000D02*
X-31559500Y-61722000D01*
X163065230Y-61741020D02*
X175371250Y-49435000D01*
X-10775980Y-61741020D02*
X163065230Y-61741020D01*
X-10795000Y-61722000D02*
X-10775980Y-61741020D01*
X-31559500Y-61722000D02*
X-10795000Y-61722000D01*
%TO.N,Col4*%
X78740000Y-146685000D02*
X19177000Y-146685000D01*
X19177000Y-146685000D02*
X12319000Y-139827000D01*
X-35560000Y-133223962D02*
X-35560000Y-127635000D01*
X-28956962Y-139827000D02*
X-35560000Y-133223962D01*
X12319000Y-139827000D02*
X-28956962Y-139827000D01*
X-45085000Y-118110000D02*
X-45085000Y-108585000D01*
X-35560000Y-127635000D02*
X-45085000Y-118110000D01*
X-49847500Y-103822500D02*
X-49847500Y-89535000D01*
X-45085000Y-108585000D02*
X-49847500Y-103822500D01*
X-59372500Y-80010000D02*
X-59372500Y-70485000D01*
X-49847500Y-89535000D02*
X-59372500Y-80010000D01*
X-59372500Y-70485000D02*
X-50120520Y-61233020D01*
X-50120520Y-61233020D02*
X157961145Y-61233020D01*
X160979240Y-61287010D02*
X172831250Y-49435000D01*
X158015135Y-61287010D02*
X160979240Y-61287010D01*
X157961145Y-61233020D02*
X158015135Y-61287010D01*
%TO.N,Col3*%
X-54610000Y-138049000D02*
X-54610000Y-127635000D01*
X-2222500Y-146685000D02*
X-45974000Y-146685000D01*
X-45974000Y-146685000D02*
X-54610000Y-138049000D01*
X-54610000Y-127635000D02*
X-64135000Y-118110000D01*
X-64135000Y-118110000D02*
X-64135000Y-108585000D01*
X-68897500Y-103822500D02*
X-68897500Y-89535000D01*
X-64135000Y-108585000D02*
X-68897500Y-103822500D01*
X-78422500Y-80010000D02*
X-78422500Y-70485000D01*
X-68897500Y-89535000D02*
X-78422500Y-80010000D01*
X-78422500Y-70485000D02*
X-78422500Y-67446510D01*
X-78422500Y-67446510D02*
X-71755000Y-60779010D01*
X158149202Y-60779010D02*
X158203192Y-60833000D01*
X-71755000Y-60779010D02*
X158149202Y-60779010D01*
X158893250Y-60833000D02*
X170291250Y-49435000D01*
X158203192Y-60833000D02*
X158893250Y-60833000D01*
%TO.N,Col2*%
X-73660000Y-137160000D02*
X-73660000Y-127635000D01*
X-83185000Y-146685000D02*
X-73660000Y-137160000D01*
X-73660000Y-127635000D02*
X-83185000Y-118110000D01*
X-83185000Y-118110000D02*
X-83185000Y-108585000D01*
X-87947500Y-103822500D02*
X-87947500Y-89535000D01*
X-83185000Y-108585000D02*
X-87947500Y-103822500D01*
X-97472500Y-80010000D02*
X-97472500Y-70485000D01*
X-87947500Y-89535000D02*
X-97472500Y-80010000D01*
X156861250Y-60325000D02*
X167751250Y-49435000D01*
X-97472500Y-70485000D02*
X-87312500Y-60325000D01*
X-87312500Y-60325000D02*
X156861250Y-60325000D01*
%TO.N,Col1*%
X-106997500Y-146685000D02*
X-101727000Y-141414500D01*
X-93218962Y-127635000D02*
X-92710000Y-127635000D01*
X-101727000Y-136143038D02*
X-93218962Y-127635000D01*
X-101727000Y-141414500D02*
X-101727000Y-136143038D01*
X-92710000Y-127635000D02*
X-95123000Y-127635000D01*
X-102235000Y-120523000D02*
X-102235000Y-108585000D01*
X-95123000Y-127635000D02*
X-102235000Y-120523000D01*
X-102235000Y-108585000D02*
X-106680000Y-104140000D01*
X-106680000Y-89852500D02*
X-106997500Y-89535000D01*
X-106680000Y-104140000D02*
X-106680000Y-89852500D01*
X-106997500Y-89535000D02*
X-111506000Y-89535000D01*
X-116522500Y-84518500D02*
X-116522500Y-70485000D01*
X-111506000Y-89535000D02*
X-116522500Y-84518500D01*
X154810230Y-59836020D02*
X165211250Y-49435000D01*
X-116522500Y-70485000D02*
X-105873520Y-59836020D01*
X-105873520Y-59836020D02*
X154810230Y-59836020D01*
%TO.N,Col0*%
X-124159212Y-127635250D02*
X-123650250Y-127635250D01*
X-126873000Y-142748000D02*
X-126873000Y-130349038D01*
X-126873000Y-130349038D02*
X-124159212Y-127635250D01*
X-130810000Y-146685000D02*
X-126873000Y-142748000D01*
X-128270000Y-108743750D02*
X-128428750Y-108585000D01*
X-123650250Y-127635250D02*
X-128270000Y-123015500D01*
X-128270000Y-123015500D02*
X-128270000Y-108743750D01*
X-130810000Y-106203750D02*
X-130810000Y-89535000D01*
X-128428750Y-108585000D02*
X-130810000Y-106203750D01*
X-130810000Y-89535000D02*
X-135509000Y-84836000D01*
X-135509000Y-70548500D02*
X-135572500Y-70485000D01*
X-135509000Y-84836000D02*
X-135509000Y-70548500D01*
X162671250Y-49435000D02*
X152724240Y-59382010D01*
X152724240Y-59382010D02*
X-130355990Y-59382010D01*
X-135572500Y-64598520D02*
X-135572500Y-70485000D01*
X-130355990Y-59382010D02*
X-135572500Y-64598520D01*
%TD*%
M02*
