M48
; DRILL file {KiCad (5.1.6)-1} date 11/26/20 21:32:42
; FORMAT={-:-/ absolute / inch / decimal}
; #@! TF.CreationDate,2020-11-26T21:32:42-06:00
; #@! TF.GenerationSoftware,Kicad,Pcbnew,(5.1.6)-1
FMAT,2
INCH
T1C0.0157
T2C0.0315
T3C0.0394
T4C0.0579
T5C0.0787
T6C0.0689
T7C0.1200
T8C0.1570
%
G90
G05
T1
X5.62Y-4.825
X5.62Y-5.115
X7.04Y-2.36
X7.24Y-2.26
X7.375Y-2.39
X7.6Y-2.26
T2
X-0.7894Y-1.8213
X-0.4894Y-1.8213
X-0.2766Y-1.0938
X0.0234Y-1.0938
X1.2586Y-1.0938
X1.5586Y-1.0938
X-1.2977Y-1.5713
X-0.9977Y-1.5713
X-0.7928Y-1.3125
X-0.4928Y-1.3125
X-5.3937Y-1.0938
X-5.0938Y-1.0938
X-4.3706Y-2.1025
X-4.0706Y-2.1025
X-1.3019Y-1.8213
X-1.0019Y-1.8213
X2.2856Y-2.0425
X2.5856Y-2.0425
X-2.3269Y-1.8213
X-2.0269Y-1.8213
X0.2414Y-1.5713
X0.5414Y-1.5713
X-3.8601Y-1.3125
X-3.5601Y-1.3125
X0.2352Y-1.0938
X0.5352Y-1.0938
X-2.8377Y-1.3125
X-2.5377Y-1.3125
X-2.8368Y-1.5713
X-2.5368Y-1.5713
X1.252Y-1.3125
X1.552Y-1.3125
X-2.8394Y-2.1025
X-2.5394Y-2.1025
X-5.4019Y-1.8213
X-5.1019Y-1.8213
X2.7856Y-2.0425
X3.0856Y-2.0425
X-0.7847Y-1.5713
X-0.4847Y-1.5713
X-3.3519Y-1.8213
X-3.0519Y-1.8213
X-4.3713Y-1.3125
X-4.0713Y-1.3125
X-3.3489Y-1.3125
X-3.0489Y-1.3125
X-4.3758Y-1.5713
X-4.0758Y-1.5713
X0.7469Y-1.0938
X1.0469Y-1.0938
X-2.3237Y-1.5713
X-2.0237Y-1.5713
X2.7856Y-1.3213
X3.0856Y-1.3213
X-3.3469Y-1.0938
X-3.0469Y-1.0938
X-0.7769Y-2.1025
X-0.4769Y-2.1025
X2.2856Y-1.7613
X2.5856Y-1.7613
X-0.2717Y-1.5713
X0.0283Y-1.5713
X0.7544Y-1.5713
X1.0544Y-1.5713
X1.7703Y-1.0938
X2.0703Y-1.0938
X-1.3041Y-1.3125
X-1.0041Y-1.3125
X1.7632Y-1.3125
X2.0632Y-1.3125
X2.282Y-1.0938
X2.582Y-1.0938
X-5.3937Y-1.3125
X-5.0938Y-1.3125
X-1.8107Y-1.5713
X-1.5107Y-1.5713
X-2.3234Y-1.0938
X-2.0234Y-1.0938
X1.7544Y-2.0425
X2.0544Y-2.0425
X-2.8394Y-1.8213
X-2.5394Y-1.8213
X-3.8644Y-1.8213
X-3.5644Y-1.8213
X-0.2769Y-1.8213
X0.0231Y-1.8213
X-1.8117Y-1.0938
X-1.5117Y-1.0938
X-2.3265Y-1.3125
X-2.0265Y-1.3125
X2.2744Y-1.3125
X2.5744Y-1.3125
X2.7937Y-1.0938
X3.0938Y-1.0938
X-4.3703Y-1.0938
X-4.0703Y-1.0938
X-4.8888Y-1.5713
X-4.5888Y-1.5713
X-3.3498Y-1.5713
X-3.0498Y-1.5713
X-1.8144Y-1.8213
X-1.5144Y-1.8213
X0.2544Y-1.8213
X0.5544Y-1.8213
X-1.3Y-1.0938
X-1.0Y-1.0938
X-4.8825Y-1.3125
X-4.5825Y-1.3125
X-0.2816Y-1.3125
X0.0184Y-1.3125
X-2.8352Y-1.0938
X-2.5352Y-1.0938
X-3.8628Y-1.5713
X-3.5628Y-1.5713
X0.2296Y-1.3125
X0.5296Y-1.3125
X-0.2769Y-2.1025
X0.0231Y-2.1025
X-4.8894Y-1.8213
X-4.5894Y-1.8213
X-5.4019Y-2.1025
X-5.1019Y-2.1025
X-0.7883Y-1.0938
X-0.4883Y-1.0938
X-1.8153Y-1.3125
X-1.5153Y-1.3125
X-5.4019Y-1.5713
X-5.1019Y-1.5713
X-4.882Y-1.0938
X-4.582Y-1.0938
X0.7408Y-1.3125
X1.0408Y-1.3125
X-3.8586Y-1.0938
X-3.5586Y-1.0938
X-4.9019Y-2.1025
X-4.6019Y-2.1025
X0.2544Y-2.1025
X0.5544Y-2.1025
X-4.3769Y-1.8213
X-4.0769Y-1.8213
T3
X5.8044Y-1.9463
X5.9044Y-1.9463
X6.0044Y-1.9463
X6.1044Y-1.9463
X6.2044Y-1.9463
X6.3044Y-1.9463
X6.4044Y-1.9463
X6.5044Y-1.9463
X6.6044Y-1.9463
X6.7044Y-1.9463
X6.8044Y-1.9463
X6.9044Y-1.9463
X7.0044Y-1.9463
X7.1044Y-1.9463
X7.2044Y-1.9463
X7.3044Y-1.9463
X7.4044Y-1.9463
X7.5044Y-1.9463
X7.6044Y-1.9463
X7.7044Y-1.9463
T4
X6.9125Y-5.025
X7.1625Y-4.925
X7.6Y-2.775
X7.85Y-2.675
X2.1625Y-2.775
X2.4125Y-2.675
X-0.4625Y-3.525
X-0.2125Y-3.425
X-3.65Y-5.025
X-3.4Y-4.925
X6.1Y-3.525
X6.35Y-3.425
X1.4125Y-2.775
X1.6625Y-2.675
X3.475Y-4.275
X3.725Y-4.175
X-3.275Y-5.775
X-3.025Y-5.675
X6.85Y-2.775
X7.1Y-2.675
X3.1Y-5.775
X3.35Y-5.675
X-4.2125Y-3.525
X-3.9625Y-3.425
X-3.275Y-4.275
X-3.025Y-4.175
X-2.3375Y-2.775
X-2.0875Y-2.675
X3.6625Y-2.775
X3.9125Y-2.675
X3.2875Y-3.525
X3.5375Y-3.425
X-3.8375Y-2.775
X-3.5875Y-2.675
X1.6Y-5.025
X1.85Y-4.925
X3.1Y-5.025
X3.35Y-4.925
X6.85Y-3.525
X7.1Y-3.425
X6.1Y-2.775
X6.35Y-2.675
X-0.0875Y-5.775
X0.1625Y-5.675
X4.5062Y-5.025
X4.7562Y-4.925
X2.54Y-3.525
X2.79Y-3.425
X-3.0875Y-2.775
X-2.8375Y-2.675
X-5.3375Y-2.775
X-5.0875Y-2.675
X-2.525Y-4.275
X-2.275Y-4.175
X-4.5875Y-2.775
X-4.3375Y-2.675
X-0.65Y-5.025
X-0.4Y-4.925
X6.9125Y-5.775
X7.1625Y-5.675
X4.6937Y-4.275
X4.9437Y-4.175
X6.16Y-5.775
X6.41Y-5.675
X7.665Y-5.775
X7.915Y-5.675
X-5.15Y-3.525
X-4.9Y-3.425
X7.6Y-3.525
X7.85Y-3.425
X-0.8375Y-2.775
X-0.5875Y-2.675
X-0.0875Y-2.775
X0.1625Y-2.675
X4.0375Y-3.525
X4.2875Y-3.425
X2.35Y-5.025
X2.6Y-4.925
X-2.7125Y-3.525
X-2.4625Y-3.425
X4.975Y-3.525
X5.225Y-3.425
X-1.775Y-4.275
X-1.525Y-4.175
X0.475Y-4.275
X0.725Y-4.175
X-1.2125Y-3.525
X-0.9625Y-3.425
X-1.9625Y-3.525
X-1.7125Y-3.425
X4.975Y-5.775
X5.225Y-5.675
X0.6625Y-2.775
X0.9125Y-2.675
X-4.025Y-4.275
X-3.775Y-4.175
X2.9125Y-2.775
X3.1625Y-2.675
X-4.8681Y-5.025
X-4.6181Y-4.925
X-1.025Y-4.275
X-0.775Y-4.175
X-4.2125Y-5.775
X-3.9625Y-5.675
X4.0375Y-5.775
X4.2875Y-5.675
X0.1Y-5.025
X0.35Y-4.925
X-1.4Y-5.025
X-1.15Y-4.925
X-5.0562Y-4.275
X-4.8062Y-4.175
X2.725Y-4.275
X2.975Y-4.175
X1.0375Y-3.525
X1.2875Y-3.425
X-0.275Y-4.275
X-0.025Y-4.175
X1.225Y-4.275
X1.475Y-4.175
X0.2875Y-3.525
X0.5375Y-3.425
X1.7875Y-3.525
X2.0375Y-3.425
X-1.5875Y-2.775
X-1.3375Y-2.675
X-2.9Y-5.025
X-2.65Y-4.925
X-3.4625Y-3.525
X-3.2125Y-3.425
X-2.15Y-5.025
X-1.9Y-4.925
X4.7875Y-2.775
X5.0375Y-2.675
X-5.15Y-5.775
X-4.9Y-5.675
X1.975Y-4.275
X2.225Y-4.175
X0.85Y-5.025
X1.1Y-4.925
T5
X-5.625Y-6.3
X-5.605Y-1.0
X8.24Y-1.945
X8.26Y-6.3
T6
X6.8625Y-5.125
X7.2625Y-5.125
X7.55Y-2.875
X7.95Y-2.875
X2.1125Y-2.875
X2.5125Y-2.875
X-0.5125Y-3.625
X-0.1125Y-3.625
X-3.7Y-5.125
X-3.3Y-5.125
X6.05Y-3.625
X6.45Y-3.625
X1.3625Y-2.875
X1.7625Y-2.875
X3.425Y-4.375
X3.825Y-4.375
X-3.325Y-5.875
X-2.925Y-5.875
X6.8Y-2.875
X7.2Y-2.875
X3.05Y-5.875
X3.45Y-5.875
X-4.2625Y-3.625
X-3.8625Y-3.625
X-3.325Y-4.375
X-2.925Y-4.375
X-2.3875Y-2.875
X-1.9875Y-2.875
X3.6125Y-2.875
X4.0125Y-2.875
X3.2375Y-3.625
X3.6375Y-3.625
X-3.8875Y-2.875
X-3.4875Y-2.875
X1.55Y-5.125
X1.95Y-5.125
X3.05Y-5.125
X3.45Y-5.125
X6.8Y-3.625
X7.2Y-3.625
X6.05Y-2.875
X6.45Y-2.875
X-0.1375Y-5.875
X0.2625Y-5.875
X4.4562Y-5.125
X4.8563Y-5.125
X2.49Y-3.625
X2.89Y-3.625
X-3.1375Y-2.875
X-2.7375Y-2.875
X-5.3875Y-2.875
X-4.9875Y-2.875
X-2.575Y-4.375
X-2.175Y-4.375
X-4.6375Y-2.875
X-4.2375Y-2.875
X-0.7Y-5.125
X-0.3Y-5.125
X6.8625Y-5.875
X7.2625Y-5.875
X4.6437Y-4.375
X5.0438Y-4.375
X6.11Y-5.875
X6.51Y-5.875
X7.615Y-5.875
X8.015Y-5.875
X-5.2Y-3.625
X-4.8Y-3.625
X7.55Y-3.625
X7.95Y-3.625
X-0.8875Y-2.875
X-0.4875Y-2.875
X-0.1375Y-2.875
X0.2625Y-2.875
X3.9875Y-3.625
X4.3875Y-3.625
X2.3Y-5.125
X2.7Y-5.125
X-2.7625Y-3.625
X-2.3625Y-3.625
X4.925Y-3.625
X5.325Y-3.625
X-1.825Y-4.375
X-1.425Y-4.375
X0.425Y-4.375
X0.825Y-4.375
X-1.2625Y-3.625
X-0.8625Y-3.625
X-2.0125Y-3.625
X-1.6125Y-3.625
X4.925Y-5.875
X5.325Y-5.875
X0.6125Y-2.875
X1.0125Y-2.875
X-4.075Y-4.375
X-3.675Y-4.375
X2.8625Y-2.875
X3.2625Y-2.875
X-4.9181Y-5.125
X-4.5181Y-5.125
X-1.075Y-4.375
X-0.675Y-4.375
X-4.2625Y-5.875
X-3.8625Y-5.875
X3.9875Y-5.875
X4.3875Y-5.875
X0.05Y-5.125
X0.45Y-5.125
X-1.45Y-5.125
X-1.05Y-5.125
X-5.1063Y-4.375
X-4.7062Y-4.375
X2.675Y-4.375
X3.075Y-4.375
X0.9875Y-3.625
X1.3875Y-3.625
X-0.325Y-4.375
X0.075Y-4.375
X1.175Y-4.375
X1.575Y-4.375
X0.2375Y-3.625
X0.6375Y-3.625
X1.7375Y-3.625
X2.1375Y-3.625
X-1.6375Y-2.875
X-1.2375Y-2.875
X-2.95Y-5.125
X-2.55Y-5.125
X-3.5125Y-3.625
X-3.1125Y-3.625
X-2.2Y-5.125
X-1.8Y-5.125
X4.7375Y-2.875
X5.1375Y-2.875
X-5.2Y-5.875
X-4.8Y-5.875
X1.925Y-4.375
X2.325Y-4.375
X0.8Y-5.125
X1.2Y-5.125
T7
X4.4688Y-2.6
X5.4062Y-2.6
X-2.1875Y-6.15
X2.3125Y-6.15
X4.1875Y-4.85
X5.125Y-4.85
X4.375Y-4.1
X5.3125Y-4.1
X-5.1869Y-4.85
X-4.2494Y-4.85
T8
X-1.4375Y-2.875
X-2.75Y-5.125
X-3.3125Y-3.625
X-2.0Y-5.125
X4.4688Y-3.2
X4.9375Y-2.875
X5.4062Y-3.2
X-5.0Y-5.875
X2.125Y-4.375
X1.0Y-5.125
X7.0625Y-5.125
X7.75Y-2.875
X2.3125Y-2.875
X-0.3125Y-3.625
X-3.5Y-5.125
X6.25Y-3.625
X1.5625Y-2.875
X3.625Y-4.375
X-3.125Y-5.875
X7.0Y-2.875
X3.25Y-5.875
X-4.0625Y-3.625
X-3.125Y-4.375
X-2.1875Y-2.875
X3.8125Y-2.875
X3.4375Y-3.625
X-3.6875Y-2.875
X1.75Y-5.125
X3.25Y-5.125
X7.0Y-3.625
X6.25Y-2.875
X-2.1875Y-5.55
X0.0625Y-5.875
X2.3125Y-5.55
X4.1875Y-5.45
X4.6562Y-5.125
X5.125Y-5.45
X2.69Y-3.625
X-2.9375Y-2.875
X-5.1875Y-2.875
X-2.375Y-4.375
X-4.4375Y-2.875
X-0.5Y-5.125
X7.0625Y-5.875
X4.375Y-4.7
X4.8438Y-4.375
X5.3125Y-4.7
X6.31Y-5.875
X7.815Y-5.875
X-5.0Y-3.625
X7.75Y-3.625
X-0.6875Y-2.875
X0.0625Y-2.875
X4.1875Y-3.625
X2.5Y-5.125
X-2.5625Y-3.625
X5.125Y-3.625
X-1.625Y-4.375
X0.625Y-4.375
X-1.0625Y-3.625
X-1.8125Y-3.625
X5.125Y-5.875
X0.8125Y-2.875
X-3.875Y-4.375
X3.0625Y-2.875
X-5.1869Y-5.45
X-4.7181Y-5.125
X-4.2494Y-5.45
X-0.875Y-4.375
X-4.0625Y-5.875
X4.1875Y-5.875
X0.25Y-5.125
X-1.25Y-5.125
X-4.9062Y-4.375
X2.875Y-4.375
X1.1875Y-3.625
X-0.125Y-4.375
X1.375Y-4.375
X0.4375Y-3.625
X1.9375Y-3.625
T0
M30
